<svg width="718" height="612" class="video-banner__mask-image video-banner__mask-image-desktop" viewBox="0 0 718 612" fill="none" xmlns="http://www.w3.org/2000/svg">
						<path d="M0 0V612H718V0H0ZM568.5 16.855C621.282 16.855 664.07 61.8405 664.07 117.334C664.07 172.828 621.282 217.814 568.5 217.814C515.718 217.814 472.931 172.828 472.931 117.334C472.931 61.8405 515.718 16.855 568.5 16.855ZM271.136 32.6424C271.136 21.5003 280.081 12.4598 291.125 12.4598H446.903C457.938 12.4598 466.892 21.492 466.892 32.6424V199.099C466.892 210.241 457.947 219.282 446.903 219.282H291.125C280.09 219.282 271.136 210.249 271.136 199.099V32.6424ZM354.059 246.536V384.279C354.059 395.421 345.113 404.461 334.07 404.461H205.972C194.936 404.461 185.982 395.429 185.982 384.279V246.536C185.982 235.394 194.928 226.354 205.972 226.354H334.061C345.097 226.354 354.051 235.386 354.051 246.536H354.059ZM5.14343 32.6424C5.14343 21.5003 14.0891 12.4598 25.1329 12.4598H245.637C256.672 12.4598 265.626 21.492 265.626 32.6424V199.099C265.626 210.241 256.681 219.282 245.637 219.282H25.1329C14.0974 219.282 5.14343 210.249 5.14343 199.099V32.6424ZM179.771 521.32C179.771 532.462 170.825 541.503 159.781 541.503H25.3477C14.3122 541.503 5.35819 532.471 5.35819 521.32V246.378C5.35819 235.236 14.3039 226.195 25.3477 226.195H159.781C170.817 226.195 179.771 235.227 179.771 246.378V521.32ZM473.608 576.972C473.608 588.115 464.662 597.155 453.618 597.155H205.972C194.936 597.155 185.982 588.123 185.982 576.972V431.933C185.982 420.791 194.928 411.75 205.972 411.75H453.618C464.654 411.75 473.608 420.782 473.608 431.933V576.972ZM625.578 438.338L507.012 558.049C497.331 567.823 480.778 560.901 480.778 547.082V427.371C480.778 418.806 487.658 411.859 496.141 411.859H614.707C628.394 411.859 635.25 428.572 625.569 438.346L625.578 438.338ZM706.32 384.879C706.32 396.021 697.374 405.062 686.331 405.062H380.153C369.117 405.062 360.163 396.029 360.163 384.879V247.137C360.163 235.995 369.109 226.954 380.153 226.954H686.331C697.366 226.954 706.32 235.986 706.32 247.137V384.879Z" fill="white"></path>
						</svg>